<mxfile host="app.diagrams.net" modified="2017-01-01T00:00:00.000Z">
  <diagram id="v6" name="Page-1">
    <mxGraphModel dx="748" dy="608" grid="1" gridSize="10">
      <root>
        <mxCell id="0" />
        <mxCell id="1" parent="0" />
        <mxCell id="2" value="" style="ellipse" vertex="1" parent="1">
          <mxGeometry x="100" y="100" width="80" height="80" as="geometry" />
        </mxCell>
      </root>
    </mxGraphModel>
  </diagram>
</mxfile>
